<svg id="Capa_1" data-name="Capa 1" xmlns="http://www.w3.org/2000/svg" viewBox="0 0 56.05 41"><defs><style>.cls-1{fill:#f4c647;}.cls-2{fill:#f9e295;}.cls-3{fill:#eeaf4b;}.cls-4{fill:#fcdf76;}</style></defs><title>cheese</title><path class="cls-1" d="M45,19.52V25l4.78.63V14.27c-.08-3.18-11.19-6.74-24.89-6.74S.08,11.09,0,14.27V32.52c0,3.19,10.74,7.11,24.48,7.11H25V21.52L20.3,14.3Z" transform="translate(0 -7.52)"/><path class="cls-2" d="M25,31.52v-10L20.3,14.3,45,19.52V25L31,23.52v10S25,31.5,25,31.52Z" transform="translate(0 -7.52)"/><path class="cls-3" d="M24.89,7.52C11.14,7.52,0,11.11,0,14.3s10.74,7.22,24.48,7.22H25L20.3,14.3l25,5.22c2.79-.93,4.44-4,4.44-5.22C49.78,11.11,38.63,7.52,24.89,7.52Z" transform="translate(0 -7.52)"/><path class="cls-1" d="M36,29V48.52c8.26,0,15.65-1,20-2.49V26.49L31,23.19Z" transform="translate(0 -7.52)"/><path class="cls-3" d="M31,23.19,36,29c8.23,0,15.57-1,19.94-2.5Z" transform="translate(0 -7.52)"/><polygon class="cls-4" points="36 21.45 36 41 31 35 31 15.67 36 21.45"/></svg>