<svg id="Capa_1" data-name="Capa 1" xmlns="http://www.w3.org/2000/svg" viewBox="0 0 512 368"><defs><style>.cls-1{fill:#5d647f;}.cls-2{fill:#ffd100;}.cls-3{fill:#b8bac0;}.cls-4{fill:#8a8895;}.cls-5{fill:#ff4f19;}.cls-6{fill:#ff9500;}</style></defs><title>credit-card</title><path class="cls-1" d="M472,72H40A40,40,0,0,0,0,112V400a40,40,0,0,0,40,40H472a40,40,0,0,0,40-40V112A40,40,0,0,0,472,72Z" transform="translate(0 -72)"/><path class="cls-2" d="M176,232H80a16,16,0,0,1-16-16V152a16,16,0,0,1,16-16h96a16,16,0,0,1,16,16v64A16,16,0,0,1,176,232Z" transform="translate(0 -72)"/><path class="cls-3" d="M120,336H80a16,16,0,0,1-16-16v-8a16,16,0,0,1,16-16h40a16,16,0,0,1,16,16v8A16,16,0,0,1,120,336Z" transform="translate(0 -72)"/><path class="cls-3" d="M224,336H184a16,16,0,0,1-16-16v-8a16,16,0,0,1,16-16h40a16,16,0,0,1,16,16v8A16,16,0,0,1,224,336Z" transform="translate(0 -72)"/><path class="cls-3" d="M328,336H288a16,16,0,0,1-16-16v-8a16,16,0,0,1,16-16h40a16,16,0,0,1,16,16v8A16,16,0,0,1,328,336Z" transform="translate(0 -72)"/><path class="cls-3" d="M432,336H392a16,16,0,0,1-16-16v-8a16,16,0,0,1,16-16h40a16,16,0,0,1,16,16v8A16,16,0,0,1,432,336Z" transform="translate(0 -72)"/><path class="cls-4" d="M232,384H72a8,8,0,0,1,0-16H232a8,8,0,0,1,0,16Z" transform="translate(0 -72)"/><path class="cls-4" d="M336,384H264a8,8,0,0,1,0-16h72a8,8,0,0,1,0,16Z" transform="translate(0 -72)"/><path class="cls-5" d="M368,216a48,48,0,1,1,0-64" transform="translate(0 -72)"/><polygon class="cls-6" points="192 120 112 120 112 104 192 104 192 88 112 88 112 64 96 64 96 160 112 160 112 136 192 136 192 120"/><circle class="cls-2" cx="400" cy="112" r="48"/></svg>