<svg id="Layer_1" data-name="Layer 1" xmlns="http://www.w3.org/2000/svg" viewBox="0 0 508.41 512"><defs><style>.cls-1{fill:#ffd652;}.cls-2{fill:#458fde;}.cls-3{fill:#fb9d46;}.cls-4{fill:#ff7452;}.cls-5{fill:#fdc854;}.cls-6{fill:#89dcfc;}.cls-7{fill:#fff;}.cls-8{fill:gray;}.cls-9{fill:#666;}.cls-10{fill:#aff078;}</style></defs><title>delivery-truck</title><path class="cls-1" d="M486.32,330.5H450.77v-95a23.88,23.88,0,0,0-23.88-23.88H307.13a8.28,8.28,0,0,0-3.24.6,8,8,0,0,0-4.9,7.36l.08,99.76H1.79V455.74a15.92,15.92,0,0,0,15.92,15.92H494.28a15.92,15.92,0,0,0,15.92-15.92V354.38A23.88,23.88,0,0,0,486.32,330.5Z" transform="translate(-1.79)"/><path class="cls-2" d="M307.13,147.94H9.76a8,8,0,0,0-8,8V349.08a8,8,0,0,0,8,8H307.13a8,8,0,0,0,8-8V155.9A8,8,0,0,0,307.13,147.94Z" transform="translate(-1.79)"/><rect class="cls-3" y="402.14" width="508.41" height="21.23"/><path class="cls-4" d="M1.79,423.37v32.37a15.92,15.92,0,0,0,15.92,15.92H494.28a15.92,15.92,0,0,0,15.92-15.92V423.37Z" transform="translate(-1.79)"/><path class="cls-5" d="M510.21,354.38a23.88,23.88,0,0,0-23.88-23.88H450.77v-95a23.88,23.88,0,0,0-23.88-23.88H307.13a8.28,8.28,0,0,0-3.24.6,8,8,0,0,0-4.9,7.36l.08,110.91H1.79v71.64H510.21V354.38Z" transform="translate(-1.79)"/><path class="cls-6" d="M413.09,237.1H336.67a8,8,0,0,0-8,8V313a8,8,0,0,0,8,8h76.42a8,8,0,0,0,8-8V245.06A8,8,0,0,0,413.09,237.1Z" transform="translate(-1.79)"/><polygon class="cls-6" points="389 237.1 366.71 237.1 326.91 276.9 326.91 299.19 389 237.1"/><path class="cls-7" d="M390.8,237.1l-62.09,62.09V313a8,8,0,0,0,.1,1.22l77.11-77.11Z" transform="translate(-1.79)"/><path class="cls-6" d="M413.09,237.1h-7.16l-77.11,77.11a8,8,0,0,0,7.35,6.71l82-82A7.94,7.94,0,0,0,413.09,237.1Z" transform="translate(-1.79)"/><path class="cls-7" d="M418.16,238.92l-82,82,.51,0h27.07L421,263.63V245.06A7.94,7.94,0,0,0,418.16,238.92Z" transform="translate(-1.79)"/><path class="cls-6" d="M363.73,320.95h49.36a8,8,0,0,0,8-8V263.63Z" transform="translate(-1.79)"/><path class="cls-8" d="M124.39,368.71A71.64,71.64,0,1,0,196,440.36,71.73,71.73,0,0,0,124.39,368.71Z" transform="translate(-1.79)"/><path class="cls-8" d="M374.88,368.71a71.64,71.64,0,1,0,71.64,71.64A71.73,71.73,0,0,0,374.88,368.71Z" transform="translate(-1.79)"/><path class="cls-9" d="M374.88,393.65a46.7,46.7,0,1,0,46.7,46.7A46.75,46.75,0,0,0,374.88,393.65Z" transform="translate(-1.79)"/><path class="cls-9" d="M124.39,393.65a46.7,46.7,0,1,0,46.7,46.7A46.75,46.75,0,0,0,124.39,393.65Z" transform="translate(-1.79)"/><path class="cls-10" d="M124.39,402.68a37.68,37.68,0,1,0,37.68,37.68A37.72,37.72,0,0,0,124.39,402.68Z" transform="translate(-1.79)"/><path class="cls-10" d="M374.88,402.68a37.68,37.68,0,1,0,37.68,37.68A37.72,37.72,0,0,0,374.88,402.68Z" transform="translate(-1.79)"/><path class="cls-4" d="M357.89,346.42H336.67a8,8,0,0,1,0-15.92h21.23a8,8,0,0,1,0,15.92Z" transform="translate(-1.79)"/><path class="cls-10" d="M139.95,46.78H96.55L83.13,5.5A8,8,0,0,0,68,5.5L54.58,46.78H11.18A8,8,0,0,0,6.5,61.18L41.61,86.69,28.2,128c-2.32,7.14,6.17,13.31,12.25,8.9l35.11-25.51,35.11,25.51c6.07,4.41,14.55-1.81,12.25-8.9L109.51,86.69l35.11-25.51a8,8,0,0,0-4.68-14.4Z" transform="translate(-1.79)"/><path class="cls-10" d="M296.33,46.78h-43.4L239.52,5.5a8,8,0,0,0-15.14,0L211,46.78h-43.4a8,8,0,0,0-4.68,14.4L198,86.69,184.59,128c-2.32,7.14,6.17,13.31,12.25,8.9l35.11-25.51,35.11,25.51c6.07,4.41,14.55-1.81,12.25-8.9L265.9,86.69,301,61.18a8,8,0,0,0-4.68-14.4Z" transform="translate(-1.79)"/><path class="cls-10" d="M460.29,52.28a8,8,0,0,0-7.57-5.5h-43.4L395.91,5.5a8,8,0,0,0-15.14,0L367.36,46.78H324a8,8,0,0,0-4.68,14.4l35.11,25.51L341,128c-2.32,7.14,6.17,13.31,12.25,8.9l35.11-25.51,35.11,25.51c6.07,4.41,14.55-1.81,12.25-8.9L422.29,86.69,457.4,61.18a8,8,0,0,0,2.89-8.9Z" transform="translate(-1.79)"/><path class="cls-6" d="M79.81,215.87H41.6a8,8,0,0,0-8,8v87a8,8,0,1,0,15.92,0v-34.5H71.32a8,8,0,1,0,0-15.92H49.56V231.79H79.81a8,8,0,1,0,0-15.92Z" transform="translate(-1.79)"/><path class="cls-6" d="M141.37,215.87H105.28a8,8,0,0,0-8,8v87a8,8,0,1,0,15.92,0v-26l.53,0h10.3l7.48,28.06a8,8,0,1,0,15.38-4.1l-6.39-24h.82a8,8,0,0,0,8-8V223.83A8,8,0,0,0,141.37,215.87ZM113.24,269V231.79h20.17v37.15H113.77Z" transform="translate(-1.79)"/><path class="cls-6" d="M209.3,231.79a8,8,0,0,0,0-15.92H171.09a8,8,0,0,0-8,8v87a8,8,0,0,0,8,8H209.3a8,8,0,0,0,0-15.92H179V276.37h21.76a8,8,0,1,0,0-15.92H179V231.79Z" transform="translate(-1.79)"/><path class="cls-6" d="M275.11,302.9H244.86V276.37h21.76a8,8,0,1,0,0-15.92H244.86V231.79h30.25a8,8,0,0,0,0-15.92H236.9a8,8,0,0,0-8,8v87a8,8,0,0,0,8,8h38.21a8,8,0,1,0,0-15.92Z" transform="translate(-1.79)"/></svg>