<svg id="Capa_1" data-name="Capa 1" xmlns="http://www.w3.org/2000/svg" viewBox="0 0 486.49 512"><defs><style>.cls-1{fill:#ad5f40;}.cls-2{fill:#ba6746;}.cls-3{fill:#3c5064;}.cls-4{fill:#3c5a73;}.cls-5{fill:#1c9585;}.cls-6{fill:#c8a06e;}.cls-7{fill:#b48255;}.cls-8{fill:#39ae96;}.cls-9{fill:#343e6b;}.cls-10{fill:#414b82;}.cls-11{fill:#64afff;}.cls-12{fill:#ffb69e;}.cls-13{fill:#78beff;}</style></defs><title>delivery-nav</title><path class="cls-1" d="M334.57,511.34A24.36,24.36,0,0,1,316.49,482l27.62-116.47a24.46,24.46,0,0,1,2.19-5.81L395,268.13A24.36,24.36,0,1,1,438,291l-47.22,88.84-26.9,113.43A24.36,24.36,0,0,1,334.57,511.34Z" transform="translate(-12.76)"/><path class="cls-2" d="M498.25,480.79,466.78,373.38l22-107.12L457.51,123.85a28.42,28.42,0,0,0-33.85-21.66l-49.5,10.87a28.42,28.42,0,0,0-21.66,33.85l31.28,142.41,53-11.65-19,91.79a24.36,24.36,0,0,0,.48,11.78L451.5,494.49a24.36,24.36,0,0,0,46.75-13.7Z" transform="translate(-12.76)"/><path class="cls-3" d="M403.2,356.5,438,291a24.36,24.36,0,1,0-43-22.87L348,356.5,394.44,373Z" transform="translate(-12.76)"/><path class="cls-4" d="M418.65,365.54h49.74l20.4-99.28L457.51,123.85a28.42,28.42,0,0,0-33.85-21.66l-49.5,10.87a28.42,28.42,0,0,0-21.66,33.85l31.28,142.41,53-11.65Z" transform="translate(-12.76)"/><path class="cls-5" d="M383.77,289.33l105-23.06L457.51,123.85a28.42,28.42,0,0,0-33.85-21.66l-49.5,10.87a28.42,28.42,0,0,0-21.66,33.85Z" transform="translate(-12.76)"/><circle class="cls-2" cx="375.08" cy="51.48" r="44.86"/><path class="cls-6" d="M190.51,277.93H317.2a17.27,17.27,0,0,0,17.27-17.27V134A17.27,17.27,0,0,0,317.2,116.7H190.51A17.27,17.27,0,0,0,173.23,134V260.66A17.27,17.27,0,0,0,190.51,277.93Z" transform="translate(-12.76)"/><polygon class="cls-7" points="215.9 116.7 215.9 178.46 215.9 178.46 215.9 186.9 224.3 178.5 232.69 186.9 241.09 178.5 249.49 186.9 257.89 178.5 266.29 186.9 266.29 178.46 266.29 162.8 266.29 116.7 215.9 116.7"/><path class="cls-4" d="M381.74,56.45H321.59a12.05,12.05,0,1,1,0-24.1h60.15a12.05,12.05,0,1,1,0,24.1Z" transform="translate(-12.76)"/><path class="cls-5" d="M411.2,41.53h0a5.7,5.7,0,0,1,5.7-5.7h13a44.86,44.86,0,0,0-86.63,20.62h89.16a44.88,44.88,0,0,0,.08-9.22H416.9A5.7,5.7,0,0,1,411.2,41.53Z" transform="translate(-12.76)"/><path class="cls-2" d="M276.76,224.49l77.62,2.7a19.06,19.06,0,0,0,16.16-7.95l52.53-75.47a19.06,19.06,0,0,0-31-22.2L344,188.72l-65.88-2.32a19.06,19.06,0,1,0-1.34,38.09Z" transform="translate(-12.76)"/><path class="cls-8" d="M396.11,182.52l27-38.75a19.06,19.06,0,0,0-31-22.2l-28,39.13Z" transform="translate(-12.76)"/><path class="cls-9" d="M37.16,512a24.4,24.4,0,0,0,24.4-24.4v-195a24.4,24.4,0,1,0-48.8,0v195A24.4,24.4,0,0,0,37.16,512Z" transform="translate(-12.76)"/><path class="cls-10" d="M96.07,512a24.4,24.4,0,0,0,24.4-24.4v-195a24.4,24.4,0,1,0-48.8,0v195A24.4,24.4,0,0,0,96.07,512Z" transform="translate(-12.76)"/><path class="cls-11" d="M120.47,292.55H12.76V128.89A31.63,31.63,0,0,1,44.39,97.26H88.84a31.63,31.63,0,0,1,31.63,31.63V292.55Z" transform="translate(-12.76)"/><circle class="cls-12" cx="53.86" cy="42.14" r="42.14"/><path class="cls-12" d="M110.39,198.13l-62.81-56.6a21.74,21.74,0,0,1,29.1-32.29l55,49.54,60.81-10.41a21.74,21.74,0,0,1,7.33,42.85l-71.2,12.18A21.73,21.73,0,0,1,110.39,198.13Z" transform="translate(-12.76)"/><path class="cls-13" d="M119.93,148.2l-43.24-39a21.74,21.74,0,0,0-29.1,32.3l44.34,40Z" transform="translate(-12.76)"/></svg>