<svg id="Capa_1" data-name="Capa 1" xmlns="http://www.w3.org/2000/svg" viewBox="0 0 420.81 512"><defs><style>.cls-1{fill:#afd755;}.cls-2{fill:#bee86e;}.cls-3{fill:#96be4b;}</style></defs><title>herb</title><path class="cls-1" d="M384.14,424.69c-34.49,16.2-79.36-7.62-86.92-23.71s2.74-65.84,37.23-82c42.27-19.86,103.22-7.26,126-1.4a7.91,7.91,0,0,1,5.2,11.07C455.62,349.86,426.41,404.83,384.14,424.69Z" transform="translate(-45.59 0)"/><path class="cls-2" d="M460.44,317.52c-22.77-5.86-83.72-18.46-126,1.4-34.49,16.2-44.79,66-37.23,82,.15.33.42.68.6,1,28.47-17.22,105.69-61.67,168.54-77.07A7.88,7.88,0,0,0,460.44,317.52Z" transform="translate(-45.59 0)"/><path class="cls-1" d="M285.34,65c6.48,24.71-14.69,51.39-26.22,54.41S216,109.6,209.57,84.89c-7.42-28.3,5.83-63.9,13-80.11a8,8,0,0,1,12.1-3.17C248.9,12.2,277.92,36.72,285.34,65Z" transform="translate(-45.59 0)"/><path class="cls-2" d="M259.29,119.36c11.57-3.23,32.5-29.76,26-54.35C277.92,36.72,248.9,12.2,234.68,1.6A7.82,7.82,0,0,0,227,.69C233.09,17.53,246.57,58.38,259.29,119.36Z" transform="translate(-45.59 0)"/><path class="cls-1" d="M186,249.14c39.51,11.7,58.64,63.2,53.18,81.64S189.68,382,150.17,370.31c-48.92-14.48-89.43-69.44-103.22-90.07a8,8,0,0,1,3.48-11.75C73.22,258.7,137.13,234.66,186,249.14Z" transform="translate(-45.59 0)"/><path class="cls-2" d="M186,249.14c-48.92-14.48-112.82,9.56-135.62,19.35a7.81,7.81,0,0,0-4.27,9.69c38.21,3.16,147.57,15.42,192.35,54.37.24-.59.55-1.21.72-1.77C244.68,312.34,225.55,260.84,186,249.14Z" transform="translate(-45.59 0)"/><path class="cls-1" d="M219.15,140.12c21.6,13.63,24.34,47.58,18,57.67s-38.19,22.22-59.79,8.58c-24.74-15.61-39.36-50.68-45.17-67.43a8,8,0,0,1,6.68-10.58C156.47,126.39,194.41,124.5,219.15,140.12Z" transform="translate(-45.59 0)"/><path class="cls-2" d="M219.15,140.12c-24.74-15.61-62.68-13.72-80.31-11.76a8,8,0,0,0-7,6.76c20.6,8.91,70.76,32.45,104.81,63.29.15-.21.35-.41.48-.62C243.5,187.7,240.76,153.75,219.15,140.12Z" transform="translate(-45.59 0)"/><path class="cls-1" d="M363.12,237.94c-23.12,10.86-53.2-5.11-58.27-15.9s1.84-44.14,25-55c26.48-12.44,63.9-5.88,81.14-1.76a8,8,0,0,1,5.32,11.32C408.44,192.5,389.6,225.5,363.12,237.94Z" transform="translate(-45.59 0)"/><path class="cls-2" d="M411,165.27c-17.24-4.12-54.66-10.68-81.14,1.76-23.12,10.86-30,44.22-25,55a16,16,0,0,0,2.27,3.32c24.28-25.11,83.69-43.56,109.61-50.69A7.83,7.83,0,0,0,411,165.27Z" transform="translate(-45.59 0)"/><path class="cls-3" d="M253,442.18a8.19,8.19,0,0,1-5.66-14.11c2.71-2.59,67.5-63.93,159.48-90.8A8.19,8.19,0,1,1,411.36,353c-88.17,25.75-152.1,86.3-152.74,86.92A8.15,8.15,0,0,1,253,442.18Z" transform="translate(-45.59 0)"/><path class="cls-3" d="M116.74,281.42c-5.61-.59-8.86-.78-8.86-.78a8.19,8.19,0,0,0-1,16.35c.1,0,3.07.19,8.13.71a7.78,7.78,0,0,0,.86,0,8.19,8.19,0,0,0,.84-16.33Z" transform="translate(-45.59 0)"/><path class="cls-3" d="M367.49,192.87a8.22,8.22,0,0,0-10-5.82q-4.86,1.3-9.39,2.82a8.19,8.19,0,1,0,5.2,15.53c2.7-.9,5.49-1.75,8.4-2.52A8.2,8.2,0,0,0,367.49,192.87Z" transform="translate(-45.59 0)"/><path class="cls-3" d="M317.48,204.44a121.42,121.42,0,0,0-36.32,36C279.7,181.08,270.9,115.6,249.31,48.13a8.19,8.19,0,1,0-15.6,5,663.71,663.71,0,0,1,30.07,163.7C231.93,173,190.08,155.16,188,154.3a8.19,8.19,0,0,0-6.26,15.13c.55.23,54.46,23.11,83.22,80.69a748.19,748.19,0,0,1-4.69,92.8c-23.35-32.52-70.61-48.57-110.15-56.43a8.19,8.19,0,0,0-3.2,16.06c36.1,7.19,97.92,25.81,109.45,69.83-11.83,77.58-31.57,127.32-32,128.34a8.19,8.19,0,1,0,15.16,6.19c.43-1,21.08-53,33.21-133.73,0-.08,0-.17,0-.25a775.56,775.56,0,0,0,8.32-93.14c1.51-6.41,10.71-39.35,45.24-61.57a8.19,8.19,0,0,0-8.86-13.78Z" transform="translate(-45.59 0)"/></svg>