<svg id="Capa_1" data-name="Capa 1" xmlns="http://www.w3.org/2000/svg" viewBox="0 0 427.05 512"><defs><style>.cls-1{fill:#f1ebde;}.cls-2{fill:#e4cfc5;}.cls-3{fill:#e39510;}.cls-4{fill:#d68005;}.cls-5{fill:#fff9eb;}.cls-6{fill:#caad9e;}</style></defs><title>mushroom</title><path class="cls-1" d="M85.85,86.23v61.41a147.6,147.6,0,0,1-5.2,38.83L69.51,227.32a80.23,80.23,0,0,0,.07,42.48h0a80.21,80.21,0,0,0,77.31,58.83h99.29a80.21,80.21,0,0,0,77.31-58.83h0a80.2,80.2,0,0,0,.07-42.48l-11.14-40.85a147.61,147.61,0,0,1-5.2-38.83V86.23Z" transform="translate(-42.48)"/><path class="cls-2" d="M323.49,269.8a80.2,80.2,0,0,0,.07-42.48l-11.14-40.85a147.61,147.61,0,0,1-5.2-38.83V103.2H284v44.44a170.76,170.76,0,0,0,6,44.93l11.14,40.85a57,57,0,0,1-55,72H90.5a80.15,80.15,0,0,0,56.39,23.18h99.29a80.2,80.2,0,0,0,77.31-58.83Z" transform="translate(-42.48)"/><path class="cls-3" d="M196.54,0C132.45,0,76.8,35.24,48.75,87,30,121.58,55.55,163.28,95.65,163.28H297.43c40.1,0,65.66-41.7,46.89-76.32C316.28,35.24,260.62,0,196.54,0Z" transform="translate(-42.48)"/><path class="cls-4" d="M344.32,87C316.14,35,260.05-.36,195.56,0h0A166.59,166.59,0,0,1,288,77.79q.4.73.77,1.47c14.72,29.24-7.72,63.38-41.07,63.38H53.26A52.76,52.76,0,0,0,65.42,154.1h0a53.3,53.3,0,0,0,30.22,9.17c215.91,0,202.63,0,205.23-.11C338.94,160.87,362.55,120.58,344.32,87Z" transform="translate(-42.48)"/><path class="cls-1" d="M189.8,269.59V331a147.6,147.6,0,0,1-5.2,38.83l-11.14,40.85a80.23,80.23,0,0,0,.07,42.48h0A80.21,80.21,0,0,0,250.84,512h99.29a80.21,80.21,0,0,0,77.31-58.83h0a80.2,80.2,0,0,0,.07-42.48l-11.14-40.85a147.61,147.61,0,0,1-5.2-38.83V269.59H189.8Z" transform="translate(-42.48)"/><path class="cls-2" d="M427.44,453.17a80.2,80.2,0,0,0,.07-42.48l-11.14-40.85a147.61,147.61,0,0,1-5.2-38.83V286.56H388V331a170.76,170.76,0,0,0,6,44.93l11.14,40.85a57,57,0,0,1-55,72H194.45A80.15,80.15,0,0,0,250.84,512h99.29a80.2,80.2,0,0,0,77.31-58.83Z" transform="translate(-42.48)"/><path class="cls-3" d="M300.49,145.26a183.34,183.34,0,0,0-162.15,97.66c-20.59,38.88,7.45,85.71,51.45,85.71H411.18c44,0,72-46.83,51.45-85.71A183.35,183.35,0,0,0,300.49,145.26Z" transform="translate(-42.48)"/><path class="cls-4" d="M462.64,242.92a183.35,183.35,0,0,0-163.23-97.66v0a184,184,0,0,1,101.42,87.34q.44.82.84,1.65c16.15,32.84-8.47,71.19-45.06,71.19H143.28a58.49,58.49,0,0,0,13.35,12.88h0a57.55,57.55,0,0,0,33.16,10.3c236.9,0,222.33.05,225.18-.12C456.74,325.92,482.64,280.68,462.64,242.92Z" transform="translate(-42.48)"/><path class="cls-5" d="M236.62,421.86h-10.3a7.73,7.73,0,0,1,0-15.45h10.3a7.73,7.73,0,0,1,0,15.45Z" transform="translate(-42.48)"/><path class="cls-5" d="M374.66,421.86h-10.3a7.73,7.73,0,0,1,0-15.45h10.3a7.73,7.73,0,0,1,0,15.45Z" transform="translate(-42.48)"/><circle class="cls-6" cx="299.21" cy="393.53" r="15.45"/><circle class="cls-6" cx="216.8" cy="393.53" r="15.45"/></svg>