<svg id="Layer_1" data-name="Layer 1" xmlns="http://www.w3.org/2000/svg" viewBox="0 0 298.65 511.99"><defs><style>.cls-1{fill:#a0d468;}.cls-2{fill:#8cc153;}.cls-3{fill:#f6bb42;}.cls-4{fill:#ffce54;}.cls-5{opacity:0.2;}.cls-6{fill:#fff;}</style></defs><title>onion</title><path class="cls-1" d="M298.67,21.34A10.66,10.66,0,0,0,288,32V254.67h21.33V32A10.65,10.65,0,0,0,298.67,21.34Z" transform="translate(-106.67)"/><path class="cls-1" d="M213.32,85.34A10.65,10.65,0,0,0,202.67,96V318.67H224V96A10.66,10.66,0,0,0,213.32,85.34Z" transform="translate(-106.67)"/><polygon class="cls-2" points="154.65 338.76 208 338.76 208 99.56 154.65 64 154.65 338.76"/><polygon class="cls-2" points="144 381.42 90.66 381.42 90.66 142.23 144 106.67 144 381.42"/><path class="cls-3" d="M330.67,245.34A10.67,10.67,0,1,1,320,234.67,10.66,10.66,0,0,1,330.67,245.34Z" transform="translate(-106.67)"/><path class="cls-3" d="M202.67,245.34A10.67,10.67,0,1,1,192,234.67,10.66,10.66,0,0,1,202.67,245.34Z" transform="translate(-106.67)"/><polygon class="cls-1" points="176 274.75 122.65 274.75 122.65 35.56 176 0 176 274.75"/><path class="cls-3" d="M288,501.33a10.66,10.66,0,1,1-10.67-10.67A10.66,10.66,0,0,1,288,501.33Z" transform="translate(-106.67)"/><path class="cls-3" d="M266.67,501.33A10.67,10.67,0,1,1,256,490.66,10.66,10.66,0,0,1,266.67,501.33Z" transform="translate(-106.67)"/><path class="cls-3" d="M245.32,501.33a10.66,10.66,0,1,1-10.66-10.67A10.65,10.65,0,0,1,245.32,501.33Z" transform="translate(-106.67)"/><path class="cls-4" d="M405.32,362.67c0,76.58-66.86,138.67-149.32,138.67S106.67,439.24,106.67,362.67C106.67,241.34,256,224,256,224S405.32,241.34,405.32,362.67Z" transform="translate(-106.67)"/><g class="cls-5"><path class="cls-6" d="M256,224s-4,.47-10.67,1.77C279.49,232.45,384,261.17,384,362.67,384,435.91,322.82,495.9,245.32,501c3.53.23,7.08.36,10.67.36,82.47,0,149.32-62.09,149.32-138.67C405.32,241.34,256,224,256,224Z" transform="translate(-106.67)"/></g></svg>