<svg id="Capa_1" data-name="Capa 1" xmlns="http://www.w3.org/2000/svg" viewBox="0 0 512 512"><defs><style>.cls-1{fill:#10bb67;}.cls-2{fill:#bf6015;}.cls-3{fill:#994c10;}.cls-4{fill:#fe9923;}.cls-5{fill:#fe8821;}.cls-6{fill:#fea832;}.cls-7{fill:#fedb41;}.cls-8{fill:#fcbf29;}</style></defs><title>orange</title><path class="cls-1" d="M226,150H196a15,15,0,0,1-15-15C181,60.56,242.56,0,317,0h30a15,15,0,0,1,15,15C362,89.44,300.44,150,226,150Z"/><path class="cls-2" d="M211,135a15,15,0,0,1-30,0,75,75,0,0,0-75-75,15,15,0,0,1,0-30,104.73,104.73,0,0,1,90,51.3A102.56,102.56,0,0,1,211,135Z"/><path class="cls-3" d="M211,135a14.85,14.85,0,0,1-15,15V81.3A102.56,102.56,0,0,1,211,135Z"/><path class="cls-4" d="M392,317a195.27,195.27,0,0,1-57,138,197.65,197.65,0,0,1-139,57C88.3,512,0,424.7,0,317c0-54,22.9-104.6,58-140a195.27,195.27,0,0,1,138-57,197.65,197.65,0,0,1,139,57C370.1,212.4,392,263,392,317Z"/><path class="cls-5" d="M392,317a195.27,195.27,0,0,1-57,138,197.65,197.65,0,0,1-139,57V120a197.65,197.65,0,0,1,139,57C370.1,212.4,392,263,392,317Z"/><circle class="cls-6" cx="166" cy="227" r="15"/><circle class="cls-6" cx="106" cy="287" r="15"/><circle class="cls-6" cx="106" cy="377" r="15"/><path class="cls-4" d="M241,287c0,8.28,7.72,15,16,15a15,15,0,0,0,0-30C248.72,272,241,278.72,241,287Z"/><path class="cls-6" d="M497,332H196a14.85,14.85,0,0,0-15,15c0,90.9,75.1,165,166,165s165-74.1,165-165A14.85,14.85,0,0,0,497,332Z"/><path class="cls-4" d="M512,347c0,90.9-74.1,165-165,165V332H497A14.85,14.85,0,0,1,512,347Z"/><path class="cls-7" d="M211.9,362c7.5,67.5,65.8,120,135.1,120s126.6-52.5,134.1-120Z"/><path class="cls-8" d="M481.1,362c-7.5,67.5-64.8,120-134.1,120V362Z"/><path class="cls-6" d="M464,463.4c-5.7,5.7-15.3,5.4-21-.3L362,383V497a15,15,0,0,1-30,0V383.3l-80.1,81a16.37,16.37,0,0,1-22.3-.3c-5.7-5.7-5.4-15.3.3-21L335,336.2c2.7-2.7,7.8-3.9,12-4.2,3.9,0,9.3,1.8,12,4.5L464.3,442.1A15.12,15.12,0,0,1,464,463.4Z"/><path class="cls-4" d="M464,463.4c-5.7,5.7-15.3,5.4-21-.3L362,383V497a14.85,14.85,0,0,1-15,15V332c3.9,0,9.3,1.8,12,4.5L464.3,442.1A15.12,15.12,0,0,1,464,463.4Z"/></svg>