<svg id="Layer_1" data-name="Layer 1" xmlns="http://www.w3.org/2000/svg" viewBox="0 0 376.97 427.12"><defs><style>.cls-1{fill:#ddb57a;}.cls-2{fill:#f9de58;}.cls-3{fill:#d6b71d;}.cls-4{fill:#fcd18b;}.cls-5{fill:gray;}.cls-6{fill:#4d4d4d;}.cls-7{fill:#fff;}.cls-8{fill:#29abe2;}.cls-9{fill:#f4d521;}.cls-10{fill:#6ec6eb;}.cls-11{fill:#a9a9a9;}.cls-12{fill:#868686;}.cls-13{fill:#f8e368;}.cls-14{fill:#2496b5;}</style></defs><title>payment-method</title><path class="cls-1" d="M280.81,191.58l-1-13.25,12.05-5.64a184.26,184.26,0,0,1,25.19,2.07c-3.07,5.15-21.72,14.66-25.19,14.93l-11.05,1.89" transform="translate(-25.08)"/><circle class="cls-2" cx="82.16" cy="383.64" r="43.48"/><circle class="cls-3" cx="82.16" cy="383.64" r="28.2"/><path class="cls-1" d="M267.61,68.83A17,17,0,0,1,288.19,58L317.73,66c7.18,16.12,7.18,16.12-3.51,27.81l-43.29-8.72-12.13,8.22,8.8-24.49" transform="translate(-25.08)"/><path class="cls-4" d="M277.81,121.58l-4-2.25,4.5-13.25c0-6.2-6.8-8.5-13-8.5l5.63-12.47,4.86-5.31A45,45,0,0,1,317.74,66l.08,0h0l7,1.93.23.06L402,95.75v68.8a47.84,47.84,0,0,0-14,2.1,47.24,47.24,0,0,0-12.77,6.14l-6.87,4.67a27.91,27.91,0,0,1-24,3.57,186.47,186.47,0,0,0-27.24-6.27h-.08a184.42,184.42,0,0,0-25.19-2.07c-.86,0-8.94,23.14-9.8,23.14l-29.75-2.5c-9.17,0-26.72-8.4-30.25-16.25-1.29-2.83-5.5-12.94-5.5-16.25,0-6.25,3.16-25.91,7.25-30s4.51-6.25,10.75-6.25l11.25-5c1.19,0,30.81,2.06,32,2" transform="translate(-25.08)"/><path class="cls-1" d="M322.18,119.34H290.11l0,8s21,.92,32-8" transform="translate(-25.08)"/><path class="cls-5" d="M291.9,127.38c-1.18.06-2.38.08-3.57.08H254.19a22.48,22.48,0,0,0-15.06,5.76c-.31.27-.61.56-.91.86a22.61,22.61,0,0,0-4.62,25.28H109.3v-63a11.22,11.22,0,0,1,11.23-11.22H280.64a11.22,11.22,0,0,1,11.23,11.22v30.28l0,.77" transform="translate(-25.08)"/><path class="cls-6" d="M291.87,172.69V186.6H109.3V159.36H233.6a22.53,22.53,0,0,0,20.59,13.31h35.08l2.6,0" transform="translate(-25.08)"/><path class="cls-5" d="M291.87,186.6v9.89a11.23,11.23,0,0,1-11.23,11.23H120.53a11.23,11.23,0,0,1-11.23-11.23V186.6H291.87" transform="translate(-25.08)"/><path class="cls-7" d="M252.8,135.35a14.71,14.71,0,1,0,0,29.43c8.13,0,10.56-6.59,10.56-14.71S260.92,135.35,252.8,135.35Z" transform="translate(-25.08)"/><path class="cls-8" d="M189.4,19.36v261.3A19.37,19.37,0,0,1,170,300H44.45a19.37,19.37,0,0,1-19.37-19.37V19.36A19.37,19.37,0,0,1,44.45,0H170A19.36,19.36,0,0,1,189.4,19.36" transform="translate(-25.08)"/><polyline class="cls-7" points="156.57 39.6 156.57 255.13 7.76 255.13 7.76 39.6 156.57 39.6"/><path class="cls-5" d="M181.65,61.11V164.43H81V76.72A15.62,15.62,0,0,1,96.6,61.11h85" transform="translate(-25.08)"/><polyline class="cls-6" points="156.57 164.43 156.57 202.33 55.9 202.33 55.9 164.43 156.57 164.43"/><path class="cls-5" d="M181.65,202.33v29.39h-85A15.63,15.63,0,0,1,81,216.09V202.33H181.65" transform="translate(-25.08)"/><path class="cls-9" d="M113.15,135.17A30.37,30.37,0,0,0,121,155.56a17.48,17.48,0,0,1-2.05.11,20.5,20.5,0,1,1,0-41,17.48,17.48,0,0,1,2.05.11,30.37,30.37,0,0,0-7.84,20.39" transform="translate(-25.08)"/><path class="cls-9" d="M164.15,135.17a20.5,20.5,0,1,0-20.5,20.5,20.5,20.5,0,0,0,20.5-20.5" transform="translate(-25.08)"/><path class="cls-10" d="M170,0H59.27L71.34,39.6H181.65V255.13H137L150.71,300H170a19.37,19.37,0,0,0,19.37-19.37V19.36A19.36,19.36,0,0,0,170,0" transform="translate(-25.08)"/><path class="cls-7" d="M181.65,231.72H129.89L137,255.13h44.62V231.72m0-192.12H71.34L81.46,72.83A15.63,15.63,0,0,1,96.6,61.11h85V39.6" transform="translate(-25.08)"/><path class="cls-11" d="M143.65,155.67a20.5,20.5,0,1,1,20.5-20.5,20.5,20.5,0,0,1-20.5,20.5m38-94.56h-85A15.63,15.63,0,0,0,81.46,72.83L99,130.38a20.51,20.51,0,0,1,19.94-15.71,17.48,17.48,0,0,1,2.05.11,30.43,30.43,0,0,0,0,40.78,17.48,17.48,0,0,1-2.05.11,20.43,20.43,0,0,1-13.87-5.41l4.32,14.17h72.27V61.11" transform="translate(-25.08)"/><polyline class="cls-12" points="156.57 164.43 156.57 164.43 84.3 164.43 95.85 202.33 156.57 202.33 156.57 164.43"/><polyline class="cls-11" points="156.57 202.33 156.57 202.33 95.85 202.33 104.81 231.72 156.57 231.72 156.57 202.33"/><path class="cls-13" d="M118.94,114.67A20.51,20.51,0,0,0,99,130.38l6.06,19.88a20.43,20.43,0,0,0,13.88,5.41,17.48,17.48,0,0,0,2.05-.11,30.43,30.43,0,0,1,0-40.78,17.45,17.45,0,0,0-2-.11" transform="translate(-25.08)"/><path class="cls-13" d="M143.65,114.67a20.5,20.5,0,1,0,20.5,20.5,20.5,20.5,0,0,0-20.5-20.5" transform="translate(-25.08)"/><polyline class="cls-3" points="78.66 304.85 78.66 330.35 85.66 330.35 85.66 304.85"/><polyline class="cls-3" points="96.16 304.85 96.16 335.17 103.16 335.17 103.16 304.85"/><polyline class="cls-3" points="61.16 304.85 61.16 335.17 68.16 335.17 68.16 304.85"/><circle class="cls-14" cx="82.16" cy="278.17" r="15.33"/><path class="cls-12" d="M251.09,172.46l4.31,14.14h36.47V172.69l-2.6,0H254.19a22.63,22.63,0,0,1-3.1-.21" transform="translate(-25.08)"/><path class="cls-11" d="M291.87,186.6H255.4l6.43,21.12h18.81a11.23,11.23,0,0,0,11.23-11.23V186.6" transform="translate(-25.08)"/><path class="cls-11" d="M280.64,85.11H224.47l14.66,48.11a22.48,22.48,0,0,1,15.06-5.76h34.14c1.19,0,2.39,0,3.57-.08l0-.77V96.33a11.22,11.22,0,0,0-11.23-11.22" transform="translate(-25.08)"/></svg>