<svg id="Capa_1" data-name="Capa 1" xmlns="http://www.w3.org/2000/svg" viewBox="0 0 512 303.52"><defs><style>.cls-1{fill:#b78855;}.cls-2{fill:#a3764a;}.cls-3{fill:#e0b377;}.cls-4{fill:#cc9a5e;}</style></defs><title>potato</title><path class="cls-1" d="M239.08,328.86h0a9.6,9.6,0,0,1-2.43-3.07c-8.9-18.08,36.26-59.51,111-96.34,16.79-8.27,33.22-18.53,48.72-24.49-23.89-58.7-86.82-100.72-152.73-100.72C159.89,104.24,0,172.19,0,256,0,386.71,159.89,407.76,243.7,407.76a164.48,164.48,0,0,0,64.17-13.32C276.73,381,257.41,358.13,239.08,328.86Z" transform="translate(0 -104.24)"/><path class="cls-2" d="M19.35,256c0-61.16,79.73-114.41,158.78-142C95.93,135.68,0,191.08,0,256c0,79.2,58.7,118.14,123.61,136.53C66.17,370.07,19.35,329.09,19.35,256Z" transform="translate(0 -104.24)"/><path class="cls-1" d="M500.26,191.86l-269.42,137c41.4,66.11,129.91,99.71,200.29,65C502.68,358.66,529.72,265.58,500.26,191.86Z" transform="translate(0 -104.24)"/><path class="cls-2" d="M451.84,380.18c-69.52,34.24-156.72,1.88-198.74-62.63l-22.25,11.32c41.4,66.11,129.91,99.71,200.29,65a133.28,133.28,0,0,0,24.79-15.83C454.58,378.79,453.22,379.5,451.84,380.18Z" transform="translate(0 -104.24)"/><ellipse class="cls-3" cx="363.85" cy="259.12" rx="150.96" ry="36.5" transform="translate(-77.05 83.21) rotate(-26.22)"/><path class="cls-4" d="M248.43,325.8c-8.91-18.08,44.5-62.6,119.29-99.43,46.84-23.07,91-37.66,119.58-40.89-24.29-4.22-79.71,11.4-139.59,40.89-74.79,36.84-128.19,81.36-119.29,99.43,3.33,6.76,14.89,8.86,32,6.93C254.33,331.68,250.21,329.4,248.43,325.8Z" transform="translate(0 -104.24)"/><path class="cls-4" d="M138.38,252.86a7.73,7.73,0,0,1-7.73-7.73v-7.69a7.73,7.73,0,0,1,15.45,0v7.69A7.73,7.73,0,0,1,138.38,252.86Z" transform="translate(0 -104.24)"/><path class="cls-4" d="M215.51,252.86a7.73,7.73,0,0,1-7.73-7.73v-7.69a7.73,7.73,0,0,1,15.45,0v7.69A7.73,7.73,0,0,1,215.51,252.86Z" transform="translate(0 -104.24)"/><path class="cls-4" d="M251.54,178.13a7.73,7.73,0,0,1-7.73-7.73v-7.69a7.73,7.73,0,1,1,15.45,0v7.69A7.73,7.73,0,0,1,251.54,178.13Z" transform="translate(0 -104.24)"/><path class="cls-4" d="M68.46,252.86a7.73,7.73,0,0,1-7.73-7.73v-7.69a7.73,7.73,0,1,1,15.45,0v7.69A7.73,7.73,0,0,1,68.46,252.86Z" transform="translate(0 -104.24)"/><path class="cls-4" d="M102.34,337.19a7.73,7.73,0,0,1-7.73-7.73v-7.69a7.73,7.73,0,0,1,15.45,0v7.69A7.73,7.73,0,0,1,102.34,337.19Z" transform="translate(0 -104.24)"/><path class="cls-4" d="M174.42,337.19a7.73,7.73,0,0,1-7.73-7.73v-7.69a7.73,7.73,0,0,1,15.45,0v7.69A7.73,7.73,0,0,1,174.42,337.19Z" transform="translate(0 -104.24)"/><path class="cls-4" d="M174.42,178.13a7.73,7.73,0,0,1-7.73-7.73v-7.69a7.73,7.73,0,0,1,15.45,0v7.69A7.73,7.73,0,0,1,174.42,178.13Z" transform="translate(0 -104.24)"/><path class="cls-3" d="M416.54,347.6l7.36-3.21a7.73,7.73,0,1,1,6.17,14.17l-7.36,3.21C413.22,365.9,407.29,351.63,416.54,347.6Z" transform="translate(0 -104.24)"/><path class="cls-3" d="M341.25,357.59a7.73,7.73,0,0,1,4-10.16l7.06-3a7.73,7.73,0,1,1,6.13,14.19l-7.06,3A7.73,7.73,0,0,1,341.25,357.59Z" transform="translate(0 -104.24)"/></svg>