<svg id="Capa_1" data-name="Capa 1" xmlns="http://www.w3.org/2000/svg" viewBox="0 0 58.39 58"><defs><style>.cls-1{fill:#ecf0f1;}.cls-2{fill:#545e73;}.cls-3{fill:#8697cb;}.cls-4{fill:#b1d3ef;}.cls-5{fill:#fff;}</style></defs><title>signs</title><circle class="cls-1" cx="29" cy="29" r="29"/><path class="cls-2" d="M29,4.2a25,25,0,1,1-25,25,25,25,0,0,1,25-25m0-4a29,29,0,1,0,29,29,29,29,0,0,0-29-29Z" transform="translate(0 -0.19)"/><path class="cls-3" d="M29,6.07a1,1,0,0,0-1,1v1a1,1,0,0,0,2,0v-1A1,1,0,0,0,29,6.07Z" transform="translate(0 -0.19)"/><path class="cls-3" d="M29,49.07a1,1,0,0,0-1,1v1a1,1,0,1,0,2,0v-1A1,1,0,0,0,29,49.07Z" transform="translate(0 -0.19)"/><path class="cls-3" d="M51,28.07H50a1,1,0,0,0,0,2h1a1,1,0,0,0,0-2Z" transform="translate(0 -0.19)"/><path class="cls-3" d="M8,28.07H7a1,1,0,1,0,0,2H8a1,1,0,0,0,0-2Z" transform="translate(0 -0.19)"/><path class="cls-3" d="M43.85,12.81l-.71.71a1,1,0,1,0,1.41,1.41l.71-.71a1,1,0,1,0-1.41-1.41Z" transform="translate(0 -0.19)"/><path class="cls-3" d="M13.44,43.22l-.71.71a1,1,0,1,0,1.41,1.41l.71-.71a1,1,0,1,0-1.41-1.41Z" transform="translate(0 -0.19)"/><path class="cls-3" d="M44.56,43.22a1,1,0,1,0-1.41,1.41l.71.71a1,1,0,1,0,1.41-1.41Z" transform="translate(0 -0.19)"/><path class="cls-3" d="M14.15,12.81a1,1,0,0,0-1.41,1.41l.71.71a1,1,0,0,0,1.41-1.41Z" transform="translate(0 -0.19)"/><path class="cls-2" d="M26,30.07H18a1,1,0,0,1,0-2h8a1,1,0,0,1,0,2Z" transform="translate(0 -0.19)"/><path class="cls-2" d="M29,27.07a1,1,0,0,1-1-1v-11a1,1,0,1,1,2,0v11A1,1,0,0,1,29,27.07Z" transform="translate(0 -0.19)"/><path class="cls-2" d="M29,33.07a4,4,0,1,1,4-4A4,4,0,0,1,29,33.07Zm0-6a2,2,0,1,0,2,2A2,2,0,0,0,29,27.07Z" transform="translate(0 -0.19)"/><circle class="cls-4" cx="47.39" cy="47" r="11"/><path class="cls-5" d="M53.39,46.19h-5v-5a1,1,0,0,0-2,0v6a1,1,0,0,0,1,1h6a1,1,0,0,0,0-2Z" transform="translate(0 -0.19)"/></svg>