<svg id="Capa_1" data-name="Capa 1" xmlns="http://www.w3.org/2000/svg" viewBox="0 0 612 430.12"><title>delivery</title><path d="M21.47,377.52V117.14a26.2,26.2,0,0,1,26.2-26.2H307.92a26.2,26.2,0,0,1,26.2,26.2V377.52a8.73,8.73,0,0,1-8.73,8.73H30.21A8.73,8.73,0,0,1,21.47,377.52Zm210.16,89.2a54.34,54.34,0,1,1-54.34-54.34A54.34,54.34,0,0,1,231.63,466.72Zm-27.17,0a27.17,27.17,0,1,0-27.17,27.17A27.17,27.17,0,0,0,204.46,466.72Zm-74-54.34H8.73A8.73,8.73,0,0,0,0,421.12v26.49a8.73,8.73,0,0,0,8.73,8.73h97.6A71.68,71.68,0,0,1,130.49,412.39Zm385.44,54.34a54.34,54.34,0,1,1-54.34-54.34A54.34,54.34,0,0,1,515.94,466.72Zm-27.17,0a27.17,27.17,0,1,0-27.17,27.17A27.17,27.17,0,0,0,488.77,466.72ZM612,421.12v26.49a8.73,8.73,0,0,1-8.73,8.73h-70.7a71.71,71.71,0,0,0-141.93,0H248.26a71.68,71.68,0,0,0-24.16-44h135V162.59a17.47,17.47,0,0,1,17.47-17.47H459a69.86,69.86,0,0,1,57.9,30.77l53.15,78.72a69.86,69.86,0,0,1,12,39.09V412.38h21.25A8.73,8.73,0,0,1,612,421.12ZM523.41,256.64l-42.5-60.39a8.73,8.73,0,0,0-7.14-3.71h-66.3a8.73,8.73,0,0,0-8.73,8.73v60.39a8.73,8.73,0,0,0,8.73,8.73h108.8A8.73,8.73,0,0,0,523.41,256.64Z" transform="translate(0 -90.94)"/></svg>