<svg id="Layer_1" data-name="Layer 1" xmlns="http://www.w3.org/2000/svg" viewBox="0 0 230 150"><title>menu2</title><g id="_Group_" data-name="&lt;Group&gt;"><path id="_Path_" data-name="&lt;Path&gt;" d="M95,70H215a15,15,0,0,0,0-30H95a15,15,0,0,0,0,30Z" transform="translate(0 -40)"/><path id="_Path_2" data-name="&lt;Path&gt;" d="M215,100H95a15,15,0,0,0,0,30H215a15,15,0,0,0,0-30Z" transform="translate(0 -40)"/><path id="_Path_3" data-name="&lt;Path&gt;" d="M215,160H95a15,15,0,0,0,0,30H215a15,15,0,0,0,0-30Z" transform="translate(0 -40)"/><path id="_Path_4" data-name="&lt;Path&gt;" d="M15,160a15,15,0,1,0,10.61,25.61A15,15,0,0,0,15,160Z" transform="translate(0 -40)"/><path id="_Path_5" data-name="&lt;Path&gt;" d="M15,100a15,15,0,1,0,10.61,25.61A15,15,0,0,0,15,100Z" transform="translate(0 -40)"/><path id="_Path_6" data-name="&lt;Path&gt;" d="M15,40A15,15,0,1,0,25.61,65.61,15,15,0,0,0,15,40Z" transform="translate(0 -40)"/></g></svg>