<svg id="Layer_1" data-name="Layer 1" xmlns="http://www.w3.org/2000/svg" viewBox="0 0 17.16 13.28"><title>menu3</title><path d="M16.41,1.94H.75a.75.75,0,0,0,0,1.5H16.41a.75.75,0,1,0,0-1.5Z" transform="translate(0 -1.94)"/><path d="M16.06,6.11H.75a.75.75,0,0,0,0,1.5H16.06a.75.75,0,1,0,0-1.5Z" transform="translate(0 -1.94)"/><path d="M16.06,9.78H.75a.75.75,0,1,0,0,1.5H16.06a.75.75,0,1,0,0-1.5Z" transform="translate(0 -1.94)"/><path d="M16.06,13.72H.75a.75.75,0,0,0,0,1.5H16.06a.75.75,0,0,0,0-1.5Z" transform="translate(0 -1.94)"/></svg>