<svg id="Capa_1" data-name="Capa 1" xmlns="http://www.w3.org/2000/svg" viewBox="0 0 482.66 512"><defs><style>.cls-1{fill:#d8032a;}</style></defs><title>share</title><path class="cls-1" d="M405.69,328.93a91.62,91.62,0,0,0-72.5,35.72L192.53,286.09a91.84,91.84,0,0,0,5.1-30.19,89.83,89.83,0,0,0-5.21-30.3L333,147.14A91.44,91.44,0,1,0,314,91.53a89.37,89.37,0,0,0,5.21,30.3L178.82,200.29a91.45,91.45,0,1,0,.21,111.1L319.57,390a91.49,91.49,0,1,0,86.11-61Zm0-300.12a62.83,62.83,0,1,1-62.83,62.83A62.89,62.89,0,0,1,405.69,28.81ZM106.31,318.72a62.83,62.83,0,1,1,62.83-62.83A62.89,62.89,0,0,1,106.31,318.72ZM405.69,483.19a62.83,62.83,0,1,1,62.83-62.83A62.89,62.89,0,0,1,405.69,483.19Z" transform="translate(-14.67 0)"/></svg>